<?xml version="1.0" encoding="UTF-8"?>
<svg version="1.1" xmlns="http://www.w3.org/2000/svg" width="204" height="192">
<path d="M0 0 C1.07507813 0.73992188 2.15015625 1.47984375 3.2578125 2.2421875 C5.66465712 3.92751418 8.04545739 5.64421016 10.4140625 7.3828125 C13.79498293 9.86410456 17.22994679 12.25152523 20.6875 14.625 C22.79232408 16.08238432 24.89650391 17.54069959 27 19 C28.5778125 20.08861328 28.5778125 20.08861328 30.1875 21.19921875 C31.1775 21.89660156 32.1675 22.59398438 33.1875 23.3125 C34.50814453 24.23482422 34.50814453 24.23482422 35.85546875 25.17578125 C38.75478714 27.64205026 39.86024962 29.65121402 40.25447559 33.4560442 C40.25652846 34.37980697 40.25858133 35.30356974 40.26069641 36.25532532 C40.26778122 37.31930542 40.27486603 38.38328552 40.28216553 39.47950745 C40.27968811 40.64167282 40.27721069 41.8038382 40.2746582 43.0012207 C40.27976913 44.22926422 40.28488007 45.45730774 40.29014587 46.7225647 C40.30166636 50.0884742 40.30411493 53.45413748 40.30158257 56.82004952 C40.30051213 59.63299117 40.30539833 62.44591015 40.310188 65.25884694 C40.32128236 71.89841196 40.32172157 78.53792042 40.31567383 85.17749023 C40.30963876 92.01781912 40.32193321 98.85794206 40.3432439 105.69823581 C40.36088523 111.57779603 40.36685711 117.45729087 40.36360615 123.33687657 C40.36179654 126.84539747 40.36439679 130.3537716 40.37832069 133.86226845 C40.39328073 137.778459 40.38390673 141.69438949 40.37231445 145.6105957 C40.37995819 146.76668839 40.38760193 147.92278107 40.39547729 149.11390686 C40.34776649 156.40855662 40.02485265 161.9977278 34.61254883 167.36962891 C29.22703154 169.80015431 24.05250038 169.83806036 18.19921875 170.0859375 C16.19157276 170.19495563 14.18392927 170.30402968 12.17638302 170.41486931 C9.99232575 170.53331109 7.807959 170.64402294 5.62347412 170.75427246 C-1.71754663 171.13384246 -9.05092398 171.63789678 -16.38576889 172.11994171 C-21.64313246 172.46261313 -26.90145937 172.79008173 -32.1596508 173.11975479 C-36.6425408 173.40108147 -41.12526364 173.68463104 -45.60766602 173.97363281 C-50.05103487 174.2600574 -54.49474688 174.5404915 -58.9387455 174.81696701 C-60.59503347 174.92096578 -62.25119957 175.02692989 -63.90721703 175.13515091 C-72.72179545 175.70968716 -81.53104642 176.1245435 -90.36450195 176.24365234 C-91.160003 176.26389277 -91.95550406 176.28413319 -92.7751112 176.30498695 C-97.25685683 176.32827784 -100.16200886 175.97448178 -103.6875 173.125 C-105.39453125 171.171875 -105.39453125 171.171875 -107 169 C-107.62261719 168.26265625 -108.24523437 167.5253125 -108.88671875 166.765625 C-110.99751648 164.22769138 -113.00015833 161.62616571 -115 159 C-116.21042969 157.44345703 -116.21042969 157.44345703 -117.4453125 155.85546875 C-119.57479789 153.11685815 -121.68375175 150.36338685 -123.78173828 147.60058594 C-124.95079598 146.06464561 -126.12949211 144.53605591 -127.30859375 143.0078125 C-128.01113281 142.07710937 -128.71367187 141.14640625 -129.4375 140.1875 C-130.05496094 139.37667969 -130.67242187 138.56585938 -131.30859375 137.73046875 C-135.80620749 130.46988676 -136.43806203 124.18199003 -136.38818359 115.82983398 C-136.39344055 114.73775635 -136.39869751 113.64567871 -136.40411377 112.52050781 C-136.41726301 108.9288888 -136.40859395 105.33771687 -136.3984375 101.74609375 C-136.40045954 99.24080826 -136.40337206 96.73552335 -136.40713501 94.23023987 C-136.41155137 88.987513 -136.4054371 83.74490138 -136.39111328 78.50219727 C-136.3747808 72.45474168 -136.38008503 66.40758949 -136.3965925 60.36014122 C-136.41188315 54.52312551 -136.41021893 48.68622445 -136.4014473 42.8491993 C-136.39944877 40.37370829 -136.40189234 37.89820952 -136.40888596 35.42272758 C-136.41651901 31.9618679 -136.40486978 28.50158807 -136.38818359 25.04077148 C-136.39425629 24.02187332 -136.40032898 23.00297516 -136.40658569 21.95320129 C-136.34507455 15.05377432 -135.68467946 9.83266082 -130.75439453 4.63061523 C-127.33906734 2.60872459 -124.8895699 2.26683774 -120.9296875 1.91015625 C-120.17380341 1.83910172 -119.41791931 1.76804718 -118.63912964 1.69483948 C-115.76104244 1.43701462 -112.88151418 1.21627415 -110 1 C-108.12616638 0.856763 -108.12616638 0.856763 -106.21447754 0.71063232 C-96.32974905 -0.03878418 -86.44070558 -0.7228033 -76.55059814 -1.39685059 C-70.92181129 -1.78125278 -65.29342645 -2.17150375 -59.66500854 -2.56126404 C-56.684423 -2.76766431 -53.70373062 -2.97239194 -50.72293091 -3.17567444 C-43.64464237 -3.66062279 -36.57173239 -4.18035619 -29.5032959 -4.79396057 C-18.79959669 -5.67495273 -9.19162957 -6.38546229 0 0 Z M-32.81640625 6.76953125 C-33.97022293 6.85024872 -35.12403961 6.93096619 -36.31282043 7.01412964 C-40.06291687 7.27745888 -43.81272148 7.54468424 -47.5625 7.8125 C-49.47026215 7.94780624 -49.47026215 7.94780624 -51.41656494 8.08584595 C-66.92792513 9.1862224 -82.43859227 10.29918925 -97.94259644 11.49935913 C-99.55702985 11.62423187 -101.17155219 11.7479605 -102.78616333 11.87051392 C-104.99059066 12.03857453 -107.19455135 12.21172252 -109.3984375 12.38671875 C-111.21867432 12.52920044 -111.21867432 12.52920044 -113.07568359 12.67456055 C-116.05858314 12.90321724 -116.05858314 12.90321724 -119 14 C-119 14.66 -119 15.32 -119 16 C-116.99294997 17.70926812 -114.9847099 19.30189023 -112.875 20.875 C-112.30523437 21.30941406 -111.73546875 21.74382813 -111.1484375 22.19140625 C-109.44441517 23.48104133 -107.73844426 24.75696028 -106 26 C-104.63101563 27.05622559 -104.63101563 27.05622559 -103.234375 28.13378906 C-99.36629841 30.36564122 -97.26644565 30.46928844 -92.8203125 30.3671875 C-91.68953781 30.34505692 -91.68953781 30.34505692 -90.53591919 30.32247925 C-87.68843256 30.2490818 -84.84552635 30.12894936 -82 30 C-80.78050659 29.94477173 -79.56101318 29.88954346 -78.30456543 29.8326416 C-68.61570036 29.37975987 -58.93294308 28.8269794 -49.25006104 28.2623291 C-46.10290065 28.08035622 -42.95541037 27.90451386 -39.80790329 27.72865677 C-22.18118649 26.74150084 -4.58284672 25.61289128 13 24 C9.09085368 20.01591931 5.10255326 16.61671852 0.625 13.3125 C-0.00921875 12.82716797 -0.6434375 12.34183594 -1.296875 11.84179688 C-11.20240109 4.51372911 -21.16397995 5.93608103 -32.81640625 6.76953125 Z M-10.765625 38.27734375 C-12.97131951 38.40970836 -15.1770286 38.54183007 -17.38275146 38.67372131 C-21.98545115 38.94972503 -26.58799237 39.22820096 -31.19042969 39.50854492 C-37.076553 39.86694506 -42.96299115 40.21983055 -48.84955215 40.57096004 C-53.39650267 40.84267334 -57.94329571 41.11694998 -62.49004364 41.39203072 C-64.66043611 41.52310117 -66.83087141 41.65346459 -69.0013504 41.78309441 C-72.03524084 41.96474725 -75.06890775 42.14976966 -78.10253906 42.33569336 C-78.98999817 42.38820251 -79.87745728 42.44071167 -80.79180908 42.49481201 C-90.13390315 42.44369234 -90.13390315 42.44369234 -98 46 C-98.30343203 48.06402342 -98.30343203 48.06402342 -98.25396729 50.47227478 C-98.25960693 51.41307388 -98.26524658 52.35387299 -98.27105713 53.32318115 C-98.26700867 54.35856018 -98.26296021 55.39393921 -98.25878906 56.46069336 C-98.2622937 57.54856644 -98.26579834 58.63643951 -98.26940918 59.75727844 C-98.27824133 63.36819768 -98.27237163 66.97892238 -98.265625 70.58984375 C-98.26697132 73.09086647 -98.26891157 75.59188894 -98.27142334 78.09291077 C-98.2743767 83.34117634 -98.27026021 88.58939096 -98.26074219 93.83764648 C-98.24986295 99.90658421 -98.25337863 105.9753875 -98.264395 112.04432195 C-98.27456294 117.8791838 -98.27348853 123.71399453 -98.26763153 129.54886055 C-98.26629453 132.03323955 -98.2679445 134.51762197 -98.27259064 137.00199699 C-98.27765395 140.47139523 -98.26994787 143.94053331 -98.25878906 147.40991211 C-98.26283752 148.44326691 -98.26688599 149.4766217 -98.27105713 150.54129028 C-98.26541748 151.48490921 -98.25977783 152.42852814 -98.25396729 153.40074158 C-98.25321323 154.22130507 -98.25245918 155.04186857 -98.25168228 155.88729763 C-98.12561598 158.30165536 -98.12561598 158.30165536 -96 161 C-92.86696847 161.26429734 -89.9508931 161.33491616 -86.82055664 161.26293945 C-85.88366784 161.25135205 -84.94677904 161.23976465 -83.98149967 161.22782612 C-73.26358156 161.0513137 -62.5685712 160.44717093 -51.87109375 159.79296875 C-49.73593558 159.66547888 -47.60076793 159.53814748 -45.46559143 159.41096497 C-41.04097854 159.14566018 -36.61672211 158.87511384 -32.19262695 158.60131836 C-26.52323942 158.2513752 -20.85291692 157.92016999 -15.18215847 157.59330273 C-10.79533175 157.33751738 -6.40932432 157.0693838 -2.02345467 156.79772377 C0.06907594 156.67010529 2.16188354 156.54694632 4.25494576 156.42836571 C7.16255127 156.26232128 10.06857633 156.07904895 12.97485352 155.89135742 C13.83450211 155.84603882 14.6941507 155.80072021 15.57984924 155.75402832 C16.37117249 155.6994194 17.16249573 155.64481049 17.97779846 155.58854675 C18.66214746 155.54706607 19.34649645 155.50558538 20.05158329 155.46284771 C22.67455645 154.83975866 24.08177606 153.88968536 26 152 C26.59348584 149.82880967 26.59348584 149.82880967 26.49447632 147.36277771 C26.5028653 146.41074463 26.51125427 145.45871155 26.51989746 144.47782898 C26.50865845 143.43512344 26.49741943 142.39241791 26.48583984 141.31811523 C26.48963654 140.21873627 26.49343323 139.1193573 26.49734497 137.98666382 C26.50476955 134.34368591 26.48334165 130.70150107 26.4609375 127.05859375 C26.4585543 124.53418573 26.45764749 122.00977592 26.4581604 119.48536682 C26.45502918 114.19170203 26.43892214 108.89831368 26.41162109 103.60473633 C26.3801539 97.48064546 26.36962544 91.3568056 26.3710922 85.23263973 C26.37231199 79.34489757 26.36189324 73.45722788 26.34550858 67.56950569 C26.33912721 65.06197671 26.33519857 62.55444028 26.33372116 60.04690361 C26.32940338 56.54863625 26.31193552 53.05068922 26.29052734 49.55249023 C26.29143372 48.50776047 26.29234009 47.4630307 26.29327393 46.38664246 C26.28474396 45.4374292 26.27621399 44.48821594 26.26742554 43.51023865 C26.26407385 42.68267783 26.26072216 41.85511702 26.25726891 41.0024786 C26.17786396 38.77037249 26.17786396 38.77037249 24 37 C12.74941738 35.66204924 0.49707595 37.58960574 -10.765625 38.27734375 Z " fill="#FFFFFF" transform="translate(150,11)"/>
<path d="M0 0 C0.125 2.875 0.125 2.875 0 6 C-2.5654594 8.5654594 -4.47686668 8.54046087 -8 9 C-7.99111755 9.94547195 -7.98223511 10.89094391 -7.9730835 11.86506653 C-7.89206078 20.76733163 -7.83206511 29.66952212 -7.79275131 38.57207203 C-7.77186023 43.14919695 -7.74351515 47.72602467 -7.69824219 52.30297852 C-7.6548382 56.71852738 -7.63087435 61.13379006 -7.62049103 65.54953575 C-7.61308981 67.23570958 -7.59863711 68.92186743 -7.57707977 70.60791969 C-7.54811714 72.96658012 -7.54404084 75.32405222 -7.54589844 77.68286133 C-7.53151733 78.38273163 -7.51713623 79.08260193 -7.50231934 79.80368042 C-7.52943324 82.97727379 -7.57843091 84.57148994 -9.8526001 86.88310242 C-14.8888641 89.50254516 -19.31212973 90.60941467 -25 90 C-33.86428587 86.03936163 -38.60605025 75.71194054 -43.3671875 67.71191406 C-46.16287138 63.06860418 -49.08392505 58.50580518 -52 53.9375 C-52.88558594 52.5443457 -52.88558594 52.5443457 -53.7890625 51.12304688 C-56.62579076 46.67113302 -59.48075138 42.23117153 -62.375 37.81640625 C-62.85710937 37.0797876 -63.33921875 36.34316895 -63.8359375 35.58422852 C-64.22007813 35.06143311 -64.60421875 34.5386377 -65 34 C-65.33 34 -65.66 34 -66 34 C-66.33 49.18 -66.66 64.36 -67 80 C-63.37 80.66 -59.74 81.32 -56 82 C-57 87 -57 87 -59.16015625 88.76953125 C-62.39865859 90.17273378 -64.91626941 90.50431459 -68.4375 90.6875 C-69.65566406 90.75195312 -70.87382813 90.81640625 -72.12890625 90.8828125 C-78.08812824 91.06321276 -84.03819586 91.08154443 -90 91 C-90 89.35 -90 87.7 -90 86 C-84.375 83 -84.375 83 -81 83 C-81 60.56 -81 38.12 -81 15 C-83.97 14.67 -86.94 14.34 -90 14 C-89.6875 10.625 -89.6875 10.625 -89 7 C-85.82891766 4.88594511 -84.5747849 4.6644278 -80.88671875 4.3671875 C-79.88576172 4.28339844 -78.88480469 4.19960937 -77.85351562 4.11328125 C-76.80873047 4.03464844 -75.76394531 3.95601563 -74.6875 3.875 C-73.65431641 3.78863281 -72.62113281 3.70226562 -71.55664062 3.61328125 C-69.56589518 3.45238713 -67.57357376 3.30968627 -65.58007812 3.1875 C-62.8580256 3.03087173 -62.8580256 3.03087173 -59.63671875 2.4296875 C-56.40881585 3.12787094 -55.98829107 3.90762848 -54.0703125 6.515625 C-53.06738052 8.08038694 -52.08671014 9.65957047 -51.125 11.25 C-50.0716803 12.91280205 -49.01829479 14.57556241 -47.96484375 16.23828125 C-47.45808105 17.05506348 -46.95131836 17.8718457 -46.42919922 18.71337891 C-44.58149983 21.66957167 -42.64316711 24.55165204 -40.6875 27.4375 C-37.04113118 32.90705324 -33.5126836 38.44357321 -30 44 C-26.535 49.445 -26.535 49.445 -23 55 C-22.67 40.15 -22.34 25.3 -22 10 C-24.97 10 -27.94 10 -31 10 C-31.495 8.515 -31.495 8.515 -32 7 C-30.4375 4.375 -30.4375 4.375 -28 2 C-22.86812224 0.76425643 -17.56795355 0.68278131 -12.3125 0.4375 C-11.45849609 0.39431641 -10.60449219 0.35113281 -9.72460938 0.30664062 C-6.47766236 0.14595118 -3.25154154 0 0 0 Z " fill="#FFFFFF" transform="translate(160,66)"/>
<path d="" fill="#000000" transform="translate(0,0)"/>
<path d="" fill="#000000" transform="translate(0,0)"/>
<path d="" fill="#000000" transform="translate(0,0)"/>
<path d="" fill="#000000" transform="translate(0,0)"/>
<path d="" fill="#000000" transform="translate(0,0)"/>
<path d="" fill="#000000" transform="translate(0,0)"/>
<path d="" fill="#000000" transform="translate(0,0)"/>
<path d="" fill="#000000" transform="translate(0,0)"/>
<path d="" fill="#000000" transform="translate(0,0)"/>
<path d="" fill="#000000" transform="translate(0,0)"/>
<path d="" fill="#000000" transform="translate(0,0)"/>
<path d="" fill="#000000" transform="translate(0,0)"/>
<path d="" fill="#000000" transform="translate(0,0)"/>
<path d="" fill="#000000" transform="translate(0,0)"/>
<path d="" fill="#000000" transform="translate(0,0)"/>
<path d="" fill="#000000" transform="translate(0,0)"/>
<path d="" fill="#000000" transform="translate(0,0)"/>
<path d="" fill="#000000" transform="translate(0,0)"/>
<path d="" fill="#000000" transform="translate(0,0)"/>
<path d="" fill="#000000" transform="translate(0,0)"/>
<path d="" fill="#000000" transform="translate(0,0)"/>
<path d="" fill="#000000" transform="translate(0,0)"/>
<path d="" fill="#000000" transform="translate(0,0)"/>
<path d="" fill="#000000" transform="translate(0,0)"/>
<path d="" fill="#000000" transform="translate(0,0)"/>
<path d="" fill="#000000" transform="translate(0,0)"/>
<path d="" fill="#000000" transform="translate(0,0)"/>
<path d="" fill="#000000" transform="translate(0,0)"/>
<path d="" fill="#000000" transform="translate(0,0)"/>
<path d="" fill="#000000" transform="translate(0,0)"/>
<path d="" fill="#000000" transform="translate(0,0)"/>
<path d="" fill="#000000" transform="translate(0,0)"/>
<path d="" fill="#000000" transform="translate(0,0)"/>
<path d="" fill="#000000" transform="translate(0,0)"/>
</svg>
